<svg id="visual" viewBox="0 0 960 540" width="960" height="540" xmlns="http://www.w3.org/2000/svg" xmlns:xlink="http://www.w3.org/1999/xlink" version="1.1"><rect x="0" y="0" width="960" height="540" fill="#140021"></rect><path d="M0 274L137 274L137 345L274 345L274 310L411 310L411 266L549 266L549 317L686 317L686 339L823 339L823 308L960 308L960 283L960 541L960 541L823 541L823 541L686 541L686 541L549 541L549 541L411 541L411 541L274 541L274 541L137 541L137 541L0 541Z" fill="#008bff"></path><path d="M0 328L137 328L137 343L274 343L274 317L411 317L411 392L549 392L549 352L686 352L686 343L823 343L823 335L960 335L960 405L960 541L960 541L823 541L823 541L686 541L686 541L549 541L549 541L411 541L411 541L274 541L274 541L137 541L137 541L0 541Z" fill="#3a4293"></path><path d="M0 482L137 482L137 470L274 470L274 443L411 443L411 486L549 486L549 455L686 455L686 413L823 413L823 489L960 489L960 476L960 541L960 541L823 541L823 541L686 541L686 541L549 541L549 541L411 541L411 541L274 541L274 541L137 541L137 541L0 541Z" fill="#1d0435"></path></svg>